<svg width="133" height="133" viewBox="0 0 133 133" fill="none" xmlns="http://www.w3.org/2000/svg">
<circle cx="66.5" cy="66.5" r="66.5" fill="url(#paint0_linear_0_1)"/>
<rect x="27" y="25" width="16" height="50" rx="8" fill="#D9D9D9"/>
<rect x="77" y="25" width="16" height="50" rx="8" fill="#D9D9D9"/>
<path d="M115.263 61.2134C118.933 61.0015 122.122 63.8134 121.89 67.4825C121.384 75.4487 119.149 83.2375 115.307 90.295C110.401 99.3086 103.07 106.77 94.145 111.835C85.2196 116.9 75.0552 119.366 64.801 118.956C56.7721 118.635 48.939 116.56 41.8408 112.908C38.5716 111.227 37.7931 107.047 39.8573 104.004V104.004C41.9215 100.962 46.046 100.224 49.3778 101.779C54.367 104.106 59.7886 105.431 65.3333 105.653C73.1053 105.964 80.8093 104.094 87.5742 100.256C94.339 96.4166 99.8949 90.7616 103.614 83.9299C106.267 79.056 107.909 73.7219 108.47 68.2453C108.844 64.588 111.593 61.4253 115.263 61.2134V61.2134Z" fill="#D9D9D9"/>
<defs>
<linearGradient id="paint0_linear_0_1" x1="-7.15821" y1="48.082" x2="130" y2="134" gradientUnits="userSpaceOnUse">
<stop stop-color="#4DC7FB"/>
<stop offset="1" stop-color="#2E7695"/>
</linearGradient>
</defs>
</svg>
