<svg width="133" height="133" viewBox="0 0 133 133" fill="none" xmlns="http://www.w3.org/2000/svg">
<circle cx="66.5" cy="66.5" r="66.5" fill="url(#paint0_linear_0_1)"/>
<path d="M64.9561 70.3277C64.8577 72.3393 66.4158 74.0776 68.4204 73.8826C71.7985 73.554 75.0876 72.5395 78.0812 70.8871C82.1437 68.6447 85.5018 65.3159 87.7799 61.2734C90.0579 57.2309 91.1659 52.6342 90.9799 47.9977C90.7939 43.3612 89.3211 38.868 86.7265 35.021C84.1319 31.174 80.5178 28.125 76.2888 26.2153C72.0598 24.3057 67.3827 23.6106 62.7812 24.2081C58.1796 24.8055 53.8351 26.6719 50.2339 29.5982C47.5802 31.7546 45.4073 34.424 43.8369 37.4329C42.905 39.2184 43.9328 41.3143 45.8348 41.9767V41.9767C47.7368 42.6392 49.7857 41.606 50.8231 39.8797C51.8769 38.126 53.2315 36.5603 54.8336 35.2585C57.3841 33.1859 60.4611 31.8641 63.7202 31.4409C66.9793 31.0178 70.2919 31.51 73.2871 32.8626C76.2824 34.2151 78.8421 36.3746 80.6797 39.0993C82.5174 41.8239 83.5604 45.0063 83.6922 48.2901C83.824 51.5739 83.0392 54.8296 81.4258 57.6927C79.8123 60.5559 77.4339 62.9135 74.5566 64.5017C72.7494 65.4992 70.7902 66.1685 68.7695 66.4885C66.7802 66.8035 65.0546 68.316 64.9561 70.3277V70.3277Z" fill="white"/>
<rect x="65" y="67" width="7" height="26" rx="3.5" fill="white"/>
<circle cx="68.5" cy="103.5" r="5.5" fill="white"/>
<defs>
<linearGradient id="paint0_linear_0_1" x1="16.5" y1="9" x2="131" y2="160.5" gradientUnits="userSpaceOnUse">
<stop stop-color="white"/>
<stop offset="1" stop-color="#878787"/>
</linearGradient>
</defs>
</svg>
