<svg width="133" height="133" viewBox="0 0 133 133" fill="none" xmlns="http://www.w3.org/2000/svg">
<path d="M133 66.5C133 103.227 103.227 133 66.5 133C29.7731 133 0 103.227 0 66.5C0 29.7731 29.7731 0 66.5 0C103.227 0 133 29.7731 133 66.5ZM13.3683 66.5C13.3683 95.8438 37.1562 119.632 66.5 119.632C95.8438 119.632 119.632 95.8438 119.632 66.5C119.632 37.1562 95.8438 13.3683 66.5 13.3683C37.1562 13.3683 13.3683 37.1562 13.3683 66.5Z" fill="#4DC7FB"/>
<path d="M110 66.5C110 90.5244 90.5244 110 66.5 110C42.4756 110 23 90.5244 23 66.5C23 42.4756 42.4756 23 66.5 23C90.5244 23 110 42.4756 110 66.5ZM31.7447 66.5C31.7447 85.6948 47.3052 101.255 66.5 101.255C85.6948 101.255 101.255 85.6948 101.255 66.5C101.255 47.3052 85.6948 31.7447 66.5 31.7447C47.3052 31.7447 31.7447 47.3052 31.7447 66.5Z" fill="#4DC7FB"/>
<path d="M94 66.5C94 81.6878 81.6878 94 66.5 94C51.3122 94 39 81.6878 39 66.5C39 51.3122 51.3122 39 66.5 39C81.6878 39 94 51.3122 94 66.5ZM44.5282 66.5C44.5282 78.6347 54.3653 88.4718 66.5 88.4718C78.6347 88.4718 88.4718 78.6347 88.4718 66.5C88.4718 54.3653 78.6347 44.5282 66.5 44.5282C54.3653 44.5282 44.5282 54.3653 44.5282 66.5Z" fill="#4DC7FB"/>
</svg>
