<svg width="182" height="129" viewBox="0 0 182 129" fill="none" xmlns="http://www.w3.org/2000/svg">
<path d="M4.37256 50C4.37256 22.3858 26.7583 0 54.3726 0H129.373C156.987 0 179.373 22.3858 179.373 50V77H4.37256V50Z" fill="#D9D9D9"/>
<path d="M4.97281 48.0893C5.91253 37.0837 15.5681 29.2014 26.5391 30.4838L38.6218 31.896C49.5928 33.1784 57.7248 43.1397 56.7851 54.1454L52.7368 101.557C51.3272 118.065 36.8439 129.889 20.3874 127.965L18.237 127.714C7.26604 126.432 -0.865906 116.47 0.0738117 105.465L4.97281 48.0893Z" fill="#D9D9D9"/>
<path d="M124.965 54.1425C124.026 43.1367 132.159 33.1762 143.13 31.895L155.213 30.484C166.184 29.2027 175.839 37.086 176.778 48.0917L181.673 105.468C182.612 116.473 174.479 126.434 163.508 127.715L161.357 127.966C144.901 129.888 130.418 118.063 129.01 101.555L124.965 54.1425Z" fill="#D9D9D9"/>
<ellipse cx="68.8726" cy="67" rx="15.5" ry="18" fill="#D9D9D9"/>
<ellipse cx="113.373" cy="66.5" rx="16" ry="18.5" fill="#D9D9D9"/>
<ellipse cx="113.873" cy="67" rx="13.5" ry="16" fill="#7E7E7E"/>
<ellipse cx="141.373" cy="22.5" rx="7" ry="7.5" fill="#7E7E7E"/>
<ellipse cx="154.373" cy="36.5" rx="7" ry="7.5" fill="#7E7E7E"/>
<ellipse cx="141.373" cy="48.5" rx="7" ry="7.5" fill="#7E7E7E"/>
<ellipse cx="127.373" cy="36.5" rx="7" ry="7.5" fill="#7E7E7E"/>
<ellipse cx="68.8726" cy="67" rx="13.5" ry="16" fill="#7E7E7E"/>
<rect x="33.3726" y="15" width="14" height="41" rx="7" fill="#7E7E7E"/>
<rect x="22.3726" y="43" width="15" height="36" rx="7.5" transform="rotate(-90 22.3726 43)" fill="#7E7E7E"/>
</svg>
