<svg width="124" height="111" viewBox="0 0 124 111" fill="none" xmlns="http://www.w3.org/2000/svg">
<path d="M114.043 57.7637C119.519 58.0019 124.27 53.7506 123.48 48.3269C122.343 40.5204 119.358 32.9806 114.675 26.2281C108.04 16.66 98.3099 9.12523 86.7773 4.62459C75.2448 0.123952 62.4556 -1.12959 50.1083 1.03046C37.761 3.1905 26.44 8.66191 17.6488 16.718C8.85765 24.7741 3.01233 35.0336 0.889225 46.134C-1.23388 57.2344 0.465691 68.6503 5.76222 78.8655C11.0587 89.0807 19.7016 97.6118 30.5428 103.326C38.4498 107.493 47.2532 110.018 56.3078 110.766C61.874 111.225 66.0916 106.296 65.6432 100.729L62.909 66.7855C62.4263 60.792 67.3041 55.7307 73.3113 55.992L114.043 57.7637Z" fill="#FBAA4D"/>
<circle cx="32.5" cy="68.5" r="14.5" fill="#4DC7FB"/>
<circle cx="41.5" cy="26.5" r="14.5" fill="#4D70FB"/>
<circle cx="85.5" cy="33.5" r="14.5" fill="#824DFB"/>
</svg>
