<svg width="144" height="103" viewBox="0 0 144 103" fill="none" xmlns="http://www.w3.org/2000/svg">
<path d="M108 75.5C108 78.7174 107.056 81.9033 105.222 84.8757C103.387 87.8482 100.699 90.5491 97.3094 92.8241C93.9201 95.0992 89.8963 96.9038 85.4679 98.135C81.0396 99.3663 76.2932 100 71.5 100C66.7067 100 61.9604 99.3663 57.5321 98.135C53.1037 96.9038 49.0799 95.0992 45.6906 92.8241C42.3013 90.5491 39.6127 87.8482 37.7784 84.8757C35.9441 81.9033 35 78.7174 35 75.5L44.2806 75.5C44.2806 77.8993 44.9846 80.2752 46.3526 82.4918C47.7205 84.7085 49.7254 86.7227 52.253 88.4192C54.7805 90.1158 57.7812 91.4616 61.0836 92.3798C64.386 93.298 67.9255 93.7706 71.5 93.7706C75.0745 93.7706 78.614 93.298 81.9164 92.3798C85.2188 91.4616 88.2195 90.1158 90.747 88.4192C93.2746 86.7227 95.2795 84.7085 96.6474 82.4918C98.0153 80.2752 98.7194 77.8993 98.7194 75.5H108Z" fill="#D9D9D9"/>
<rect width="144" height="84" rx="15" fill="black"/>
<rect x="2" y="2" width="140" height="80" rx="15" fill="url(#paint0_linear_0_1)"/>
<rect x="18" y="97" width="108" height="6" rx="2" fill="#D9D9D9"/>
<defs>
<linearGradient id="paint0_linear_0_1" x1="137.5" y1="5.00001" x2="5.5" y2="77" gradientUnits="userSpaceOnUse">
<stop stop-color="#00EEFF"/>
<stop offset="1" stop-color="#008F99"/>
</linearGradient>
</defs>
</svg>
