<svg width="165" height="158" viewBox="0 0 165 158" fill="none" xmlns="http://www.w3.org/2000/svg">
<path d="M147 80.5C147 117.227 117.227 147 80.5 147C43.7731 147 14 117.227 14 80.5C14 43.7731 43.7731 14 80.5 14C117.227 14 147 43.7731 147 80.5ZM45.2345 80.5C45.2345 99.9766 61.0234 115.766 80.5 115.766C99.9766 115.766 115.766 99.9766 115.766 80.5C115.766 61.0234 99.9766 45.2345 80.5 45.2345C61.0234 45.2345 45.2345 61.0234 45.2345 80.5Z" fill="white"/>
<circle cx="126" cy="35" r="18" fill="white"/>
<ellipse cx="147" cy="72.5" rx="18" ry="18.5" fill="white"/>
<ellipse cx="138" cy="113.5" rx="18" ry="18.5" fill="white"/>
<ellipse cx="103.5" cy="140" rx="18.5" ry="18" fill="white"/>
<ellipse cx="59.5" cy="140" rx="18.5" ry="18" fill="white"/>
<ellipse cx="25" cy="113.5" rx="18" ry="18.5" fill="white"/>
<ellipse cx="18" cy="72.5" rx="18" ry="18.5" fill="white"/>
<circle cx="40" cy="32" r="18" fill="white"/>
<circle cx="81" cy="18" r="18" fill="white"/>
</svg>
