<svg width="186" height="161" viewBox="0 0 186 161" fill="none" xmlns="http://www.w3.org/2000/svg">
<rect width="186" height="161" rx="40" fill="#D7D7D7"/>
<rect x="16" y="14" width="153" height="132" rx="40" fill="black"/>
<path d="M36.5962 60.7886C34.0578 58.2502 34.0578 54.1346 36.5962 51.5962V51.5962C39.1346 49.0578 43.2502 49.0578 45.7886 51.5962L73.7816 79.5893L64.5893 88.7816L36.5962 60.7886Z" fill="#D9D9D9"/>
<path d="M64.7661 70.688L73.9585 79.8803L45.7382 108.101C43.1998 110.639 39.0842 110.639 36.5458 108.101V108.101C34.0074 105.562 34.0074 101.447 36.5458 98.9083L64.7661 70.688Z" fill="#D9D9D9"/>
<rect x="74" y="107" width="13" height="79" rx="6.5" transform="rotate(-90 74 107)" fill="#D9D9D9"/>
</svg>
