<svg width="138" height="164" viewBox="0 0 138 164" fill="none" xmlns="http://www.w3.org/2000/svg">
<path d="M12.7676 20C12.7676 8.95431 21.7219 0 32.7676 0H87.7676C115.382 0 137.768 22.3858 137.768 50V144C137.768 155.046 128.813 164 117.768 164H32.7676C21.7219 164 12.7676 155.046 12.7676 144V20Z" fill="white"/>
<rect x="33.7676" y="42" width="84" height="16" rx="8" fill="#C9C9C9"/>
<path d="M63.5979 140.007L44.9593 128.898L57.2177 119.268L63.5979 140.007Z" fill="black"/>
<rect x="9.34961" y="58" width="84" height="16" rx="8" transform="rotate(51.8482 9.34961 58)" fill="#F8EC96"/>
<path d="M64.2676 140C79.4676 138 79.6009 142.5 77.7676 145L93.7676 132.5C94.6009 135.667 96.3676 142.1 96.7676 142.5C97.1676 142.9 102.934 137.667 105.768 135L106.768 138.5" stroke="black"/>
</svg>
